<svg width="42" height="44" viewBox="0 0 42 44" fill="none" xmlns="http://www.w3.org/2000/svg">
<path fill-rule="evenodd" clip-rule="evenodd" d="M38.4398 20C38.4448 19.8252 38.4474 19.6497 38.4474 19.4737C38.4474 9.54709 30.4003 1.5 20.4737 1.5C10.5471 1.5 2.5 9.54709 2.5 19.4737C2.5 19.6497 2.50253 19.8252 2.50756 20H1.00697C1.00233 19.8251 1 19.6497 1 19.4737C1 8.71867 9.71867 0 20.4737 0C31.2287 0 39.9474 8.71867 39.9474 19.4737C39.9474 19.6497 39.945 19.8251 39.9404 20H38.4398Z" fill="#08221B"/>
<path d="M1.232 34V22H3.936V31.792L3.168 31.248L10.592 22H13.488L3.68 34H1.232ZM6.96 28.128L8.912 26.384L13.664 34H10.56L6.96 28.128ZM14.8414 34V22H17.5454V31.792L16.7774 31.248L24.2014 22H27.0974L17.2894 34H14.8414ZM20.5694 28.128L22.5214 26.384L27.2734 34H24.1694L20.5694 28.128ZM31.0108 28.736C31.0108 29.376 31.1334 29.9253 31.3788 30.384C31.6241 30.8427 31.9814 31.2 32.4508 31.456C32.9308 31.7013 33.5068 31.824 34.1788 31.824C34.8614 31.824 35.4374 31.7013 35.9068 31.456C36.3761 31.2 36.7334 30.8427 36.9788 30.384C37.2241 29.9253 37.3468 29.376 37.3468 28.736V22H40.0668V28.864C40.0668 29.9413 39.8214 30.8853 39.3308 31.696C38.8401 32.496 38.1521 33.12 37.2668 33.568C36.3814 34.016 35.3521 34.24 34.1788 34.24C33.0054 34.24 31.9761 34.016 31.0908 33.568C30.2161 33.12 29.5281 32.496 29.0268 31.696C28.5361 30.8853 28.2908 29.9413 28.2908 28.864V22H31.0108V28.736Z" fill="#08221B"/>
<path d="M1.296 40.04H2.672C2.704 40.2427 2.792 40.4213 2.936 40.576C3.08533 40.7253 3.28267 40.8427 3.528 40.928C3.77867 41.008 4.06667 41.048 4.392 41.048C4.86667 41.048 5.24 40.9813 5.512 40.848C5.78933 40.7093 5.928 40.5173 5.928 40.272C5.928 40.08 5.848 39.9333 5.688 39.832C5.53333 39.7253 5.24267 39.648 4.816 39.6L3.608 39.464C2.82933 39.3787 2.264 39.1973 1.912 38.92C1.56533 38.6373 1.392 38.2453 1.392 37.744C1.392 37.3493 1.50667 37.0133 1.736 36.736C1.97067 36.4587 2.29867 36.248 2.72 36.104C3.14133 35.9547 3.63733 35.88 4.208 35.88C4.76267 35.88 5.256 35.9627 5.688 36.128C6.12 36.288 6.464 36.5147 6.72 36.808C6.976 37.096 7.11467 37.4347 7.136 37.824H5.76C5.73333 37.648 5.65333 37.496 5.52 37.368C5.392 37.2347 5.21333 37.1333 4.984 37.064C4.75467 36.9893 4.48533 36.952 4.176 36.952C3.744 36.952 3.4 37.016 3.144 37.144C2.888 37.272 2.76 37.4533 2.76 37.688C2.76 37.8693 2.83467 38.0107 2.984 38.112C3.13867 38.208 3.408 38.28 3.792 38.328L5.048 38.48C5.60267 38.5387 6.04267 38.6347 6.368 38.768C6.69867 38.896 6.93333 39.0693 7.072 39.288C7.216 39.5067 7.288 39.784 7.288 40.12C7.288 40.52 7.16533 40.872 6.92 41.176C6.68 41.4747 6.34133 41.7067 5.904 41.872C5.46667 42.0373 4.95467 42.12 4.368 42.12C3.77067 42.12 3.24533 42.0347 2.792 41.864C2.33867 41.688 1.98133 41.4453 1.72 41.136C1.45867 40.8213 1.31733 40.456 1.296 40.04ZM9.88738 36.608H11.2394V42H9.88738V36.608ZM7.49538 36H13.6234V37.2H7.49538V36ZM17.3084 42.12C16.6097 42.12 15.9964 41.9893 15.4684 41.728C14.9457 41.4667 14.5377 41.104 14.2444 40.64C13.951 40.1707 13.8044 39.624 13.8044 39C13.8044 38.376 13.951 37.832 14.2444 37.368C14.5377 36.8987 14.9457 36.5333 15.4684 36.272C15.9964 36.0107 16.6097 35.88 17.3084 35.88C18.007 35.88 18.6177 36.0107 19.1404 36.272C19.6684 36.5333 20.079 36.8987 20.3724 37.368C20.6657 37.832 20.8124 38.376 20.8124 39C20.8124 39.624 20.6657 40.1707 20.3724 40.64C20.079 41.104 19.6684 41.4667 19.1404 41.728C18.6177 41.9893 18.007 42.12 17.3084 42.12ZM17.3084 40.912C17.7457 40.912 18.1217 40.8347 18.4364 40.68C18.7564 40.5253 19.0017 40.304 19.1724 40.016C19.3484 39.728 19.4364 39.3893 19.4364 39C19.4364 38.6107 19.3484 38.272 19.1724 37.984C19.0017 37.696 18.7564 37.4747 18.4364 37.32C18.1217 37.1653 17.7457 37.088 17.3084 37.088C16.8764 37.088 16.5004 37.1653 16.1804 37.32C15.8604 37.4747 15.6124 37.696 15.4364 37.984C15.2657 38.272 15.1804 38.6107 15.1804 39C15.1804 39.3893 15.2657 39.728 15.4364 40.016C15.6124 40.304 15.8604 40.5253 16.1804 40.68C16.5004 40.8347 16.8764 40.912 17.3084 40.912ZM22.6928 38.664H25.0048C25.3088 38.664 25.5488 38.5947 25.7248 38.456C25.9061 38.312 25.9968 38.1147 25.9968 37.864C25.9968 37.6133 25.9061 37.4187 25.7248 37.28C25.5488 37.1413 25.3088 37.072 25.0048 37.072H22.4928L23.1088 36.376V42H21.7488V36H25.1648C25.6021 36 25.9861 36.08 26.3168 36.24C26.6475 36.3947 26.9061 36.6107 27.0928 36.888C27.2795 37.1653 27.3728 37.4907 27.3728 37.864C27.3728 38.232 27.2795 38.5547 27.0928 38.832C26.9061 39.1093 26.6475 39.328 26.3168 39.488C25.9861 39.6427 25.6021 39.72 25.1648 39.72H22.6928V38.664ZM23.7328 39.192H25.2848L27.5488 42H25.9568L23.7328 39.192ZM33.3494 38.48V39.52H29.0534V38.48H33.3494ZM29.9654 39L29.5654 41.544L28.9734 40.872H33.5974V42H28.1974L28.6614 39L28.1974 36H33.5574V37.128H28.9734L29.5654 36.456L29.9654 39ZM34.3116 40.04H35.6876C35.7196 40.2427 35.8076 40.4213 35.9516 40.576C36.101 40.7253 36.2983 40.8427 36.5436 40.928C36.7943 41.008 37.0823 41.048 37.4076 41.048C37.8823 41.048 38.2556 40.9813 38.5276 40.848C38.805 40.7093 38.9436 40.5173 38.9436 40.272C38.9436 40.08 38.8636 39.9333 38.7036 39.832C38.549 39.7253 38.2583 39.648 37.8316 39.6L36.6236 39.464C35.845 39.3787 35.2796 39.1973 34.9276 38.92C34.581 38.6373 34.4076 38.2453 34.4076 37.744C34.4076 37.3493 34.5223 37.0133 34.7516 36.736C34.9863 36.4587 35.3143 36.248 35.7356 36.104C36.157 35.9547 36.653 35.88 37.2236 35.88C37.7783 35.88 38.2716 35.9627 38.7036 36.128C39.1356 36.288 39.4796 36.5147 39.7356 36.808C39.9916 37.096 40.1303 37.4347 40.1516 37.824H38.7756C38.749 37.648 38.669 37.496 38.5356 37.368C38.4076 37.2347 38.229 37.1333 37.9996 37.064C37.7703 36.9893 37.501 36.952 37.1916 36.952C36.7596 36.952 36.4156 37.016 36.1596 37.144C35.9036 37.272 35.7756 37.4533 35.7756 37.688C35.7756 37.8693 35.8503 38.0107 35.9996 38.112C36.1543 38.208 36.4236 38.28 36.8076 38.328L38.0636 38.48C38.6183 38.5387 39.0583 38.6347 39.3836 38.768C39.7143 38.896 39.949 39.0693 40.0876 39.288C40.2316 39.5067 40.3036 39.784 40.3036 40.12C40.3036 40.52 40.181 40.872 39.9356 41.176C39.6956 41.4747 39.357 41.7067 38.9196 41.872C38.4823 42.0373 37.9703 42.12 37.3836 42.12C36.7863 42.12 36.261 42.0347 35.8076 41.864C35.3543 41.688 34.997 41.4453 34.7356 41.136C34.4743 40.8213 34.333 40.456 34.3116 40.04Z" fill="#08221B"/>
</svg>
